# xmcd CD database file generated by LOLA_Freedb v0.9beta0
# 
# Track frame offsets:
#      150
#      19241
#      32263
#      48946
#      67200
#      82089
#      101967
#      119877
# 
# Disc length: 1845 seconds
# 
# Revision: 0 
# Processed by: cddbd v1.5.2PL0 Copyright (c) Steve Scherf et al.
# Submitted via: LOLA_Freedb v0.9beta0
# 
DISCID=71073308
DTITLE=The Main Ingredient - Shame On The World
DYEAR=1974
DGENRE=
TTITLE0=Shame On The World
TTITLE1=Put Your Love In My Hands
TTITLE2=Let Me Prove My Love To You
TTITLE3=Old Greyhound
TTITLE4=Jamaica
TTITLE5=Over You
TTITLE6=Lilian
TTITLE7=If I'm Gonna Be Sad
EXTD=
EXTT0=
EXTT1=
EXTT2=
EXTT3=
EXTT4=
EXTT5=
EXTT6=
EXTT7=
PLAYORDER=
